<svg width="1920" height="1080" xmlns="http://www.w3.org/2000/svg" xmlns:xlink="http://www.w3.org/1999/xlink">
 <metadata>TrueThis work is licensed under a &lt;a rel="license" href="http://creativecommons.org/licenses/by-nc-nd/4.0/"&gt;Creative Commons Attribution-NonCommercial-NoDerivatives 4.0 International License&lt;/a&gt;.black purple gradient linear amethyst 1920x1080 #000000 #9966cc 285°xmple.com</metadata>
 <title>black purple gradient linear amethyst 1920x1080 #000000 #9966cc 285°</title>
 <desc>black purple gradient linear amethyst 1920x1080 #000000 #9966cc 285°</desc>
 <style type="text/css">
  <![CDATA[.x{font:20px verdana;fill:#fff;stroke:#555;stroke-width:20px;opacity:0.35;}.o{stroke:none;opacity:0.01;}]]>
 </style>
 <defs>
  <linearGradient y2="0%" x2="42.463928962875%" y1="100%" x1="57.536071037125%" id="p1">
   <stop stop-color="#000000" offset="0%"/>
   <stop stop-color="#9966cc" offset="100%"/>
  </linearGradient>
 </defs>
 <g>
  <title>background</title>
  <rect fill="none" id="canvas_background" height="402" width="582" y="-1" x="-1"/>
 </g>
 <g>
  <title>Layer 1</title>
  <rect id="svg_1" fill="#000000" y="-32" x="-30" height="1080" width="1920"/>
  <path id="svg_3" d="m5,5l2,0l0,1l-1,0l0,1l1,0l0,1l-2,0l0,-3zm-1,-2l4,0l0,1l1,0l0,5l-1,0l0,1l-4,0l0,-1l-1,0l0,-5l1,0l0,5l4,0l0,-5l-4,0l0,-1zm7,2l1,0l0,2l1,0l0,-3l1,0l0,2l-1,0l0,1l1,0l0,2l-1,0l0,-2l-1,0l0,2l-1,0l0,-2l1,0l0,-1l-1,0l0,-1zm4,0l5,0l0,5l-1,0l0,-5l-1,0l0,4l-1,0l0,-4l-1,0l0,4l-1,0l0,-4zm6,0l3,0l-1,1l-1,0l0,3l1,0l0,-4l1,-1l0,5l-2,0l0,2l-1,0l0,-6zm4,-2l1,0l0,6l1,0l0,1l-2,0l0,-7zm3,2l3,0l-1,1l-1,0l0,1l1,0l0,-2l1,-1l0,3l-2,0l0,1l2,0l0,1l-3,0l0,-5l0,1zm4,4l1,0l0,1l-1,0l0,-1zm2,-4l3,0l0,1l-2,0l0,3l2,0l0,1l-3,0l0,-5zm4,0l3,0l0,5l-3,0l1,-1l1,0l0,-4l-1,0l0,3l-1,1l0,-4zm4,0l5,0l0,5l-1,0l0,-5l-1,0l0,4l-1,0l0,-4l-1,0l0,4l-1,0l0,-4z" class="x o"/>
  <text id="svg_4" class="x o" y="1074" x="4">© xmple.com</text>
  <a id="svg_5" xlink:href="https://www.xmple.com">
   <text id="svg_6" class="x o" y="22" x="1910" text-anchor="end">xmple.com</text>
  </a>
  <a id="svg_7" xlink:href="https://www.xmple.com">
   <g class="x" id="a" transform="translate(1719.441650390625,1041.9000244140625) scale(0.030479997396469116) ">
    <path id="svg_8" d="m549,679c9,0 16,3 21,9c6,6 9,13 9,22c0,8 -3,15 -9,22c-25,21 -52,37 -82,49c-30,11 -62,17 -95,17c-75,0 -139,-26 -192,-80c-53,-53 -80,-117 -80,-192c0,-75 27,-139 80,-192c53,-53 117,-80 192,-80c33,0 65,6 95,17c30,11 58,28 82,49c7,6 11,14 11,23c0,9 -3,16 -9,22c-6,6 -13,9 -21,9c-7,0 -14,-2 -19,-7c-39,-34 -86,-52 -139,-52c-59,0 -108,21 -149,62c-41,41 -62,91 -62,149c0,59 21,108 62,149c41,41 91,62 149,62c25,0 50,-5 74,-14c24,-9 45,-22 64,-38c5,-4 11,-6 19,-6l-1,0zm234,-153c0,108 -38,201 -115,277c-76,76 -169,114 -276,114c-108,0 -200,-38 -277,-114c-76,-77 -115,-169 -115,-277c0,-108 38,-200 115,-276c76,-77 168,-115 277,-115c108,0 200,38 276,115c77,76 115,168 115,276zm-391,-350c-96,0 -179,34 -248,103c-68,68 -102,150 -102,247c0,97 34,179 102,248c69,68 152,103 248,103c96,0 178,-34 247,-103c69,-69 103,-151 103,-247c0,-97 -34,-179 -103,-247c-68,-69 -150,-103 -247,-103l0,-1zm937,367l-186,-223c-5,-5 -7,-12 -7,-20c0,-8 3,-16 9,-21c6,-6 13,-9 22,-9c8,0 15,3 21,9l181,216l180,-216c7,-6 14,-9 22,-9c9,0 16,3 22,9c6,6 9,13 9,22c0,8 -3,15 -7,20l-187,223l188,225c4,6 6,12 6,19c0,9 -3,16 -9,22c-6,6 -13,9 -22,9c-8,0 -15,-3 -20,-9l-182,-217l-182,217c-5,6 -12,9 -20,9c-9,0 -16,-3 -22,-9c-6,-6 -9,-13 -9,-21c0,-7 2,-13 6,-18l187,-228zm412,244c0,9 -3,16 -9,22c-6,6 -13,9 -22,9c-8,0 -15,-3 -21,-9c-6,-6 -9,-13 -9,-21l0,-486c0,-8 3,-16 9,-21c6,-6 13,-9 21,-9c9,0 16,3 22,9c6,6 9,13 9,22l0,33c49,-42 100,-63 152,-63c58,0 108,21 150,63c10,10 21,23 32,38c11,-15 22,-28 32,-38c42,-42 92,-62 150,-62c59,0 109,21 151,63c41,41 62,92 62,150l0,304c0,9 -3,16 -9,22c-6,6 -13,9 -22,9c-8,0 -15,-3 -21,-9c-6,-6 -9,-13 -9,-21l0,-304c0,-42 -15,-78 -45,-107c-30,-30 -65,-45 -107,-45c-41,0 -77,15 -107,45c-30,30 -45,65 -45,107l0,304c0,9 -3,16 -9,22c-6,6 -13,9 -21,9c-9,0 -16,-3 -22,-9c-6,-6 -9,-13 -9,-21l0,-304c0,-42 -14,-78 -44,-107c-30,-30 -66,-45 -107,-45c-42,0 -78,15 -108,45c-29,30 -44,65 -44,107l0,298zm861,-243c0,59 21,109 63,150c41,42 91,63 150,63c59,0 109,-21 150,-62c42,-41 62,-91 62,-150c0,-59 -20,-109 -62,-150c-41,-42 -91,-62 -150,-62c-59,0 -109,21 -150,63c-42,42 -63,92 -63,150l0,-2zm0,478c0,9 -3,16 -9,22c-6,5 -13,8 -21,8c-9,0 -16,-3 -22,-8c-6,-6 -8,-13 -8,-22l0,-477c0,-75 26,-140 80,-193c53,-53 117,-80 193,-80c75,0 140,27 193,80c54,53 80,118 80,193c0,76 -26,140 -80,193c-53,53 -118,80 -193,80c-76,0 -140,-27 -193,-80l-20,-19l0,303zm568,-956c0,-8 3,-16 9,-21c6,-6 13,-9 21,-9c9,0 16,3 22,9c6,6 9,13 9,21l0,691l50,0c9,0 16,3 22,9c6,6 9,13 9,22c0,9 -3,16 -9,22c-6,6 -13,9 -22,9l-81,0c-8,0 -15,-3 -21,-9c-6,-6 -9,-13 -9,-21l0,-723zm716,448c-9,-48 -30,-89 -61,-120c-42,-42 -92,-62 -151,-62c-58,0 -108,21 -150,63c-31,31 -52,71 -62,120l424,-1zm-56,186c9,0 16,3 22,9c5,6 8,13 8,22c0,8 -2,15 -7,21c-51,44 -111,66 -179,66c-75,0 -140,-27 -193,-80c-53,-53 -80,-118 -80,-193c0,-75 27,-140 80,-193c53,-53 118,-80 193,-80c76,0 140,27 194,80c53,53 80,118 80,193c0,9 -3,16 -9,22c-6,6 -13,9 -22,9l-455,0c10,49 31,89 62,120c42,42 92,63 150,63c27,0 52,-4 75,-13c22,-9 43,-21 62,-37c6,-4 12,-7 19,-7l0,-2zm307,67c0,14 -5,26 -15,36c-9,10 -21,15 -36,15c-14,0 -26,-5 -36,-15c-9,-10 -14,-22 -14,-36c0,-14 5,-26 14,-36c10,-10 22,-15 36,-15c15,0 27,5 36,15c10,9 15,21 15,36zm515,-68c8,0 15,3 21,9c6,6 9,13 9,22c0,9 -3,16 -9,22c-25,21 -52,37 -83,49c-30,11 -62,17 -95,17c-76,0 -140,-27 -194,-80c-53,-53 -80,-118 -80,-193c0,-75 27,-140 80,-193c54,-53 118,-80 194,-80c33,0 65,6 96,17c30,11 57,28 82,49c3,3 5,7 7,11c3,4 4,9 4,13c0,8 -3,16 -9,21c-6,6 -13,9 -22,9c-7,0 -14,-2 -19,-7c-40,-35 -86,-52 -139,-52c-59,0 -109,21 -151,63c-41,41 -62,91 -62,150c0,59 21,109 62,150c42,42 92,63 151,63c25,0 50,-5 74,-14c24,-9 46,-22 65,-38c5,-4 11,-6 18,-6l0,-2zm663,-155c0,76 -27,140 -80,193c-54,53 -118,80 -193,80c-76,0 -140,-27 -194,-80c-53,-53 -80,-118 -80,-193c0,-75 27,-140 80,-193c54,-53 118,-80 194,-80c75,0 139,27 193,80c53,53 80,118 80,193zm-273,-213c-59,0 -109,21 -151,63c-42,42 -62,92 -62,150c0,59 20,109 62,150c42,42 92,63 151,63c58,0 108,-21 150,-62c41,-41 62,-91 62,-150c0,-59 -21,-109 -62,-150c-42,-42 -92,-62 -150,-62l0,-2zm410,456c0,9 -3,16 -9,22c-6,6 -13,9 -22,9c-8,0 -15,-3 -21,-9c-6,-6 -9,-13 -9,-21l0,-486c0,-8 3,-16 9,-21c6,-6 13,-9 21,-9c9,0 16,3 22,9c6,6 9,13 9,22l0,33c49,-42 100,-63 152,-63c58,0 108,21 150,63c10,10 21,23 32,38c11,-15 21,-28 32,-38c42,-42 92,-62 150,-62c59,0 109,21 151,63c41,41 62,92 62,150l0,304c0,9 -3,16 -9,22c-6,6 -13,9 -22,9c-8,0 -15,-3 -21,-9c-6,-6 -9,-13 -9,-21l0,-304c0,-42 -15,-78 -45,-107c-30,-30 -65,-45 -107,-45c-41,0 -77,15 -107,45c-30,30 -45,65 -45,107l0,304c0,9 -3,16 -9,22c-6,6 -13,9 -21,9c-9,0 -16,-3 -22,-9c-6,-6 -9,-13 -9,-21l0,-304c0,-42 -14,-78 -44,-107c-30,-30 -66,-45 -107,-45c-42,0 -78,15 -108,45c-30,30 -44,65 -44,107l0,298z"/>
   </g>
  </a>
  <rect x="5" y="13" id="svg_2" fill="url(#p1)" height="1080" width="1920"/>
 </g>
</svg>